# xmcd
#
# Track frame offsets: 
#        150
#        27275
#        48350
#        67400
#        85925
#        102637
#        120650
#        142762
#        162500
#        180875
#        200075
#        219700
#
# Disc length: 3201 seconds
#
# Revision: 3
# Processed by: cddbd v1.5.2PL0 Copyright (c) Steve Scherf et al.
# Submitted via: ExactAudioCopy v1.3
#
DISCID=b00c7f0c
DTITLE=鍾鎮濤 - 情人的眼睛
DYEAR=1994
DGENRE=Pop
TTITLE0=情人的眼睛 (& 章蓉舫)
TTITLE1=只要你過得比我好
TTITLE2=愛得忘了自己
TTITLE3=我想我該忘了他
TTITLE4=男人的想
TTITLE5=我的世界只有你最懂 (& 章蓉舫)
TTITLE6=捨不得
TTITLE7=飄
TTITLE8=記不記得我是誰
TTITLE9=愛你像昨天
TTITLE10=轉身就走
TTITLE11=When I'm Back On My Feet Again
EXTD=
EXTT0=
EXTT1=
EXTT2=
EXTT3=
EXTT4=
EXTT5=
EXTT6=
EXTT7=
EXTT8=
EXTT9=
EXTT10=
EXTT11=
PLAYORDER=
